# xmcd CD database file
#
# Track frame offsets:
#	150
#	15246
#	32233
#	52401
#	66596
#	84045
#	102350
#	120203
#	137192
#	154741
#	170623
#	186085
#	198258
#	213487
#	228614
#	245464
#	259814
#	276493
#
# Disc length: 3966 seconds
#
# Revision: 1
# Processed by: cddbd v1.5.2PL0 Copyright (c) Steve Scherf et al.
# Submitted via: CDex 1.78
#
DISCID=050f7c12
DTITLE=Shania Twain - Send It With Love
DYEAR=2005
DGENRE=Country
TTITLE0=Wild And Wicked
TTITLE1=Two Hearts, One Love
TTITLE2=Lost My Heart
TTITLE3=Bite My Lip
TTITLE4=(Don't Gimme That) Once Over
TTITLE5=Hate To Love
TTITLE6=Send It With Love
TTITLE7=Luv Eyes
TTITLE8=Rhythm Made Me Do It
TTITLE9=Half Breed
TTITLE10=It's Alright
TTITLE11=Love
TTITLE12=I Ain't Gonna Eat My Heart Out Anymore
TTITLE13=All Fired Up, No Place To Go
TTITLE14=The Heart Is Blind
TTITLE15=For The Love Of Him
TTITLE16=It's Alright (Club Mix)
TTITLE17=For The Love Of Him (Dance Mix)
EXTD=YEAR: 2005
EXTT0=
EXTT1=
EXTT2=
EXTT3=
EXTT4=
EXTT5=
EXTT6=
EXTT7=
EXTT8=
EXTT9=
EXTT10=
EXTT11=
EXTT12=
EXTT13=
EXTT14=
EXTT15=
EXTT16=
EXTT17=
PLAYORDER=
